<svg xmlns="http://www.w3.org/2000/svg" xmlns:xlink="http://www.w3.org/1999/xlink" id="Layer_1" x="0" y="0" enable-background="new 0 0 300 300" version="1.1" viewBox="0 0 300 300" xml:space="preserve" width="550" height="550"><g id="Forum_Discussion" fill="#000000" class="color000 svgShape"><path fill="#bbcaea" d="M181.4254761 118.3028336h.419632c1.3804474 0 2.4996033-1.1191559 2.4996033-2.4996719v-7.9016418c0-1.3805161-1.1190796-2.4995956-2.4996033-2.4995956h-.419632V118.3028336zM81.8479767 99.9865875h-.419632c-1.3804398 0-2.4995956 1.1191559-2.4995956 2.4996719v7.9016342c0 1.3805161 1.1190796 2.4996033 2.4995956 2.4996033h.419632V99.9865875zM81.8479767 83.4328995h-.419632c-1.3804398 0-2.4995956 1.1191559-2.4995956 2.4996719v7.9016342c0 1.3804474 1.1190796 2.4996033 2.4995956 2.4996033h.419632V83.4328995z" class="colorbbcaea svgShape"></path><path fill="#3a4146" d="M181.4254761,65.566185v168.8254395c0,6.6086578-5.3567352,11.9221497-11.8367157,11.9221497
									H93.7730255c-6.5664597,0-11.9232025-5.3134918-11.9232025-11.9221497V65.566185
									c0-6.522171,5.3567429-11.8799706,11.9232025-11.8799706h75.8157349
									C176.0687408,53.6862144,181.4254761,59.044014,181.4254761,65.566185z" class="color3a4146 svgShape"></path><path fill="#ffffff" d="M169.5887604,57.5737839h-30.6615448c-1.1881866,0-2.136673,0.8092918-2.5876617,1.9085655
									c-0.7595215,1.8513527-2.5920715,3.1454811-4.7233887,3.1454811c-2.0979767,0-3.922226-1.2934685-4.6801834-3.1440659
									c-0.4505615-1.1000633-1.3995209-1.9099808-2.5882721-1.9099808H93.7297821
									c-4.4137878,0-7.9918671,3.578083-7.9918671,7.9918671v168.8259888c0,4.4486542,3.6286392,8.0788879,7.9918671,8.0788879
									h75.7727509c4.4193115,0,8.0351105-3.6158142,8.0351105-8.0351257V65.566185
									C177.5376434,61.1597099,173.9519806,57.5737839,169.5887604,57.5737839z" class="colorfff svgShape"></path><path fill="#64d3ff" d="M169.5887604,57.5737839h-30.6615448c-1.1881866,0-2.136673,0.8092918-2.5876617,1.9085655
									c-0.7595215,1.8513527-2.5920715,3.1454811-4.7233887,3.1454811c-2.0979767,0-3.922226-1.2934685-4.6801834-3.1440659
									c-0.4505615-1.1000633-1.3995209-1.9099808-2.5882721-1.9099808H93.7297821
									c-4.4137878,0-7.9918671,3.578083-7.9918671,7.9918671v168.8259888c0,4.4486542,3.6286392,8.0788879,7.9918671,8.0788879
									h75.7727509c4.4193115,0,8.0351105-3.6158142,8.0351105-8.0351257V65.566185
									C177.5376434,61.1597099,173.9519806,57.5737839,169.5887604,57.5737839z" opacity=".73" class="color64d3ff svgShape"></path><circle cx="98.902" cy="230.647" r="6.748" fill="#42c1f4" class="color42c1f4 svgShape"></circle><circle cx="164.371" cy="230.647" r="6.748" fill="#42c1f4" class="color42c1f4 svgShape"></circle><path fill="#dadaf5" d="M168.1599121,230.6470795c0,0.2554626-0.1031189,0.4796295-0.2689362,0.6455688
						c-0.1614532,0.1657257-0.3945923,0.269043-0.6456909,0.269043h-5.7520752c-0.502182,0-0.9101257-0.4080505-0.9101257-0.9146118
						c0-0.2510986,0.1031036-0.4798584,0.269043-0.6457977c0.1613312-0.1657257,0.3899841-0.2688293,0.6410828-0.2688293h5.7520752
						C167.7519684,229.7324524,168.1599121,230.1448822,168.1599121,230.6470795z" class="colordadaf5 svgShape"></path><g fill="#000000" class="color000 svgShape"><path fill="#ffffff" d="M168.1599121,230.6470795c0,0.2554626-0.1031189,0.4796295-0.2689362,0.6455688
						c-0.1614532,0.1657257-0.3945923,0.269043-0.6456909,0.269043h-5.7520752c-0.502182,0-0.9101257-0.4080505-0.9101257-0.9146118
						c0-0.2510986,0.1031036-0.4798584,0.269043-0.6457977c0.1613312-0.1657257,0.3899841-0.2688293,0.6410828-0.2688293h5.7520752
						C167.7519684,229.7324524,168.1599121,230.1448822,168.1599121,230.6470795z" class="colorfff svgShape"></path></g><g fill="#000000" class="color000 svgShape"><path fill="#ffffff" d="M102.6903763,230.6470795c0,0.2554626-0.1031036,0.4796295-0.2689362,0.6455688
						c-0.1614456,0.1657257-0.3945923,0.269043-0.6456833,0.269043h-5.7520752
						c-0.5021896,0-0.9101334-0.4080505-0.9101334-0.9146118c0-0.2510986,0.1031113-0.4798584,0.269043-0.6457977
						c0.1613464-0.1657257,0.3899994-0.2688293,0.6410904-0.2688293h5.7520752
						C102.2824326,229.7324524,102.6903763,230.1448822,102.6903763,230.6470795z" class="colorfff svgShape"></path></g><g fill="#000000" class="color000 svgShape"><path fill="#ffffff" d="M98.9019623,234.4354858c-0.2554703,0-0.4796371-0.1031036-0.6455765-0.2689362
						c-0.1657181-0.161438-0.269043-0.3945923-0.269043-0.6456757v-5.7520752c0-0.5021973,0.4080582-0.910141,0.9146194-0.910141
						c0.2510986,0,0.4798584,0.1031036,0.6457977,0.269043c0.1657181,0.1613464,0.2688293,0.3899994,0.2688293,0.641098v5.7520752
						C99.8165894,234.0275421,99.4041519,234.4354858,98.9019623,234.4354858z" class="colorfff svgShape"></path></g><g fill="#000000" class="color000 svgShape"><path fill="#f3f6fd" d="M220.4694824,175.2279663h-98.4481201c-4.8049469,0-8.7001343,3.8951721-8.7001343,8.7001343v21.655304
					c0,4.8049622,3.8951874,8.7001343,8.7001343,8.7001343h98.4481201c4.8049469,0,8.7001343-3.8951721,8.7001343-8.7001343
					v-21.655304C229.1696167,179.1231384,225.2744293,175.2279663,220.4694824,175.2279663z" class="colorf3f6fd svgShape"></path><path fill="#d1dcf8" d="M185.5879822 204.2084351h-32.1218567c-1.0232086 0-1.8526764.8294678-1.8526764 1.8526764v.1766205c0 1.0231934.8294678 1.8526611 1.8526764 1.8526611h32.1218567c1.0232086 0 1.8526764-.8294678 1.8526764-1.8526611v-.1766205C187.4406586 205.0379028 186.6111908 204.2084351 185.5879822 204.2084351zM151.613327 197.1102448L151.613327 197.1102448c0-.734726.5956116-1.3303375 1.3303375-1.3303375h43.9737549c.734726 0 1.3303528.5956116 1.3303528 1.3303375l0 0c0 .7347412-.5956268 1.3303528-1.3303528 1.3303528h-43.9737549C152.2089386 198.4405975 151.613327 197.844986 151.613327 197.1102448zM175.827179 191.3428345h-22.8835144c-.734726 0-1.3303375-.5956116-1.3303375-1.3303528l0 0c0-.734726.5956116-1.3303375 1.3303375-1.3303375h22.8835144c.7347412 0 1.3303528.5956116 1.3303528 1.3303375l0 0C177.1575317 190.7472229 176.5619202 191.3428345 175.827179 191.3428345zM163.3825226 184.2452545h-10.438858c-.734726 0-1.3303375-.5956116-1.3303375-1.3303528l0 0c0-.734726.5956116-1.3303528 1.3303375-1.3303528h10.438858c.7347412 0 1.3303528.5956268 1.3303528 1.3303528l0 0C164.7128754 183.6496429 164.1172638 184.2452545 163.3825226 184.2452545zM219.6446991 191.3428345h-33.624588c-.7347412 0-1.3303528-.5956116-1.3303528-1.3303528l0 0c0-.734726.5956116-1.3303375 1.3303528-1.3303375h33.624588c.734726 0 1.3303528.5956116 1.3303528 1.3303375l0 0C220.9750519 190.7472229 220.379425 191.3428345 219.6446991 191.3428345zM219.6446991 184.2450714h-47.8375854c-.734726 0-1.3303375-.5956116-1.3303375-1.3303375v-.0000153c0-.734726.5956116-1.3303375 1.3303375-1.3303375h47.8375854c.734726 0 1.3303528.5956116 1.3303528 1.3303375v.0000153C220.9750519 183.6494598 220.379425 184.2450714 219.6446991 184.2450714zM204.1428986 197.1100769L204.1428986 197.1100769c0-.7347412.5956268-1.3303528 1.3303528-1.3303528h14.1714478c.734726 0 1.3303528.5956116 1.3303528 1.3303528l0 0c0 .734726-.5956268 1.3303375-1.3303528 1.3303375h-14.1714478C204.7385254 198.4404144 204.1428986 197.8448029 204.1428986 197.1100769z" class="colord1dcf8 svgShape"></path></g><g fill="#000000" class="color000 svgShape"><path fill="#f3f6fd" d="M162.5452881,167.2706299H64.0971756c-4.8049507,0-8.7001343-3.8951721-8.7001343-8.7001343v-21.655304
					c0-4.8049469,3.8951836-8.7001343,8.7001343-8.7001343h98.4481125c4.8049469,0,8.7001343,3.8951874,8.7001343,8.7001343
					v21.655304C171.2454224,163.3754578,167.350235,167.2706299,162.5452881,167.2706299z" class="colorf3f6fd svgShape"></path><path fill="#d1dcf8" d="M127.6638031 138.2901611H95.5419312c-1.023201 0-1.8526688-.8294678-1.8526688-1.8526764v-.1766205c0-1.0231934.8294678-1.8526611 1.8526688-1.8526611h32.1218719c1.0231934 0 1.8526611.8294678 1.8526611 1.8526611v.1766205C129.5164642 137.4606934 128.6869965 138.2901611 127.6638031 138.2901611zM93.6891327 145.3883514L93.6891327 145.3883514c0 .734726.5956192 1.3303528 1.3303452 1.3303528h43.9737473c.7347412 0 1.3303528-.5956268 1.3303528-1.3303528l0 0c0-.7347412-.5956116-1.3303528-1.3303528-1.3303528H95.0194778C94.2847519 144.0579987 93.6891327 144.6536102 93.6891327 145.3883514zM117.9029922 151.1557617H95.0194778c-.734726 0-1.3303452.5956116-1.3303452 1.3303528l0 0c0 .734726.5956192 1.3303375 1.3303452 1.3303375h22.8835144c.7347336 0 1.3303452-.5956116 1.3303452-1.3303375l0 0C119.2333374 151.7513733 118.6377258 151.1557617 117.9029922 151.1557617zM105.4583359 158.2533417h-10.438858c-.734726 0-1.3303452.5956268-1.3303452 1.3303528l0 0c0 .734726.5956192 1.3303528 1.3303452 1.3303528h10.438858c.7347336 0 1.3303452-.5956268 1.3303452-1.3303528l0 0C106.788681 158.8489685 106.1930695 158.2533417 105.4583359 158.2533417zM161.7205048 151.1557617h-33.624588c-.7347336 0-1.3303528.5956116-1.3303528 1.3303528l0 0c0 .734726.5956192 1.3303375 1.3303528 1.3303375h33.624588c.7347412 0 1.3303528-.5956116 1.3303528-1.3303375l0 0C163.0508575 151.7513733 162.455246 151.1557617 161.7205048 151.1557617zM161.7205048 158.2535248h-47.8375778c-.734726 0-1.3303452.5956116-1.3303452 1.3303528l0 0c0 .734726.5956192 1.3303375 1.3303452 1.3303375h47.8375778c.7347412 0 1.3303528-.5956116 1.3303528-1.3303375l0 0C163.0508575 158.8491364 162.455246 158.2535248 161.7205048 158.2535248zM146.2187195 145.3885193v.0000153c0 .734726.5956116 1.3303375 1.3303375 1.3303375h14.1714478c.7347412 0 1.3303528-.5956116 1.3303528-1.3303375v-.0000153c0-.734726-.5956116-1.3303375-1.3303528-1.3303375H147.549057C146.8143311 144.0581818 146.2187195 144.6537933 146.2187195 145.3885193z" class="colord1dcf8 svgShape"></path></g><g fill="#000000" class="color000 svgShape"><circle cx="72.392" cy="150" r="13.945" fill="#ffffff" class="colorfff svgShape"></circle><defs><circle id="SVGID_5_" cx="72.392" cy="150" r="13.945" fill="#000000" class="color000 svgShape"></circle></defs><clipPath id="SVGID_2_"><use overflow="visible" xlink:href="#SVGID_5_"></use></clipPath><g clip-path="url(#SVGID_2_)" fill="#000000" class="color000 svgShape"><path fill="#fec9ac" d="M79.6518936,183.1890259c0.6210709,0.0616608,1.5167618-0.0127716,2.5459213-0.2052612
											c3.3825989-0.6313477,8.2281342-2.5356445,9.7294846-5.0815735
											c0.2258835-0.3824615,0.3952484-0.7596588,0.513298-1.1242065
											c0.9213867-2.799942-3.9266586-8.5642395-3.9266586-8.5642395
											c-1.3102417,2.6806488-2.3520508,5.2934418-4.0364151,6.5796967
											c0.1257553,0.1078949,0.969429,1.4815216,1.2260742,1.9923096
											c0.0051422,0.0127869,0.0077057,0.023056,0.0051422,0.0333405
											c0.0615921,0.6389771-5.4922333,3.4647369-5.4922333,3.4647369s-0.6057129,0.1309509-1.2242126-0.3080292
											c-0.6210709-0.438858-1.7862549-1.2781067-2.1506729-0.7364807
											c-0.3619156,0.5439911,2.345726,2.2892761,1.2292862,1.7887573
											c-0.9238968-0.4131622-3.1285172-0.8956299-3.978035-0.6980133
											c-0.1745071,0.0384827-0.2951202,0.1077728-0.3285141,0.2130432
											C73.5539474,181.1564026,76.9852905,182.9196014,79.6518936,183.1890259z" class="colorfec9ac svgShape"></path><path fill="#fe4c40" d="M82.2576065,176.3008881l1.6456146,9.081131
																						c-11.9259186,1.5680695-22.9499741-1.3193054-22.9499741-1.3193054l0.5596619-5.7794495l0.3114395-3.2140503
																						c-2.3734894-0.7473755-5.0579605-8.046402-5.0579605-8.046402s1.6749306-2.454071,4.7855377-5.4229126
																						c2.505394-2.3936157,5.6596985-4.0307007,9.0829773-4.5711823
																						c3.1960754-0.5053558,6.3591919-0.0641327,9.1693497,1.6872406
																						c0.3950729,0.2457733,0.8029251,0.5404816,1.2189713,0.8729248
																						c4.5101089,3.6030884,9.938446,11.6873779,9.938446,11.6873779
																						C87.1324081,176.5881653,82.2576065,176.3008881,82.2576065,176.3008881z" class="colorfe4c40 svgShape"></path><polygon fill="#f3f6fd" points="72.605 165.216 73.702 168.591 77.251 168.591 74.38 170.677 75.476 174.052 72.605 171.966 69.735 174.052 70.831 170.677 67.96 168.591 71.509 168.591" class="colorf3f6fd svgShape"></polygon><path fill="#ea241f" d="M82.2576065,176.3008881l1.6456299,9.0811615
																						c-8.9143372,2.2303162-22.8889008-0.5622101-22.9499931-1.3193207l0.5596657-5.7794647
																						c0.5804405,0.1330261,1.1671486,0.240387,1.7585831,0.3180847
																						c2.5878067,0.3377075,5.3060913,0.0598297,7.6284943-1.1331635
																						c2.400116-1.2320557,4.2427063-3.3657379,5.5670624-5.717453
																						c1.3229446-2.3517609,2.1752243-4.932785,3.0195694-7.4966431
																						c0.5117493-1.5546265,1.0248642-3.1105804,1.5366058-4.6652069
																						c4.5101089,3.6030884,9.938446,11.6873779,9.938446,11.6873779
																						C87.1324081,176.5881653,82.2576065,176.3008881,82.2576065,176.3008881z" class="colorea241f svgShape"></path><path fill="#c16244" d="M83.9024963,185.4963837c-0.0540619,0-0.1020966-0.0384216-0.1121445-0.0935974
																							l-3.0588608-16.519104c-0.0116119-0.0621033,0.0294952-0.1217499,0.0915985-0.133255
																							c0.0609894-0.0118408,0.1217575,0.02948,0.1331482,0.0917053l3.0588608,16.5190887
																							c0.0116119,0.0621185-0.0294952,0.1217651-0.0915985,0.1332703
																							C83.9165726,185.4958344,83.9094238,185.4963837,83.9024963,185.4963837z" class="colorc16244 svgShape"></path><path fill="#edba3b" d="M60.9530411,184.177063c-0.0040245,0-0.0080452-0.0002136-0.0120659-0.0005493
																							c-0.0627747-0.006485-0.1083527-0.0626678-0.1018715-0.1255493l1.5738831-15.262558
																							c0.0064812-0.0628967,0.0645638-0.1074677,0.1255531-0.1020966
																							c0.0627785,0.0064697,0.1083527,0.0626678,0.1018753,0.1255493l-1.5738869,15.262558
																							C61.0604973,184.1332855,61.0109024,184.177063,60.9530411,184.177063z" class="coloredba3b svgShape"></path><g fill="#000000" class="color000 svgShape"><path fill="#fec9ac" d="M76.116188,157.1790924c-0.3211517,0.9507599-1.5127716,1.6042786-2.4156494,1.8522186
																					c-0.8563919,0.2352142-1.7634964,0.2549438-2.6227112,0.0281219
																					c-1.9353409-0.5112762-1.983223-1.7099152-1.983223-1.7099152
																					c0.3267746-0.1056519,0.485939-0.9394989,0.5606003-1.8367462
																					c0.094368-1.1311035,0.0577469-2.3621368,0.0577469-2.3621368h5.1397705
																					c0,0,0.1507187,1.5620575,0.3141098,2.7649536c0.0338058,0.2423096,0.1183167,0.4747009,0.2507172,0.6760712
																					c0.1169128,0.1817169,0.2704468,0.3409271,0.4563675,0.4606018
																					C76.0133743,157.1424255,76.116188,157.1790924,76.116188,157.1790924z" class="colorfec9ac svgShape"></path></g><g opacity=".5" fill="#000000" class="color000 svgShape"><path fill="#ffab90" d="M75.4175491,156.5916595c-1.7564468,0.6352997-3.8298264,0.4282074-5.3172531-0.6986237
																					c-0.1563416-0.1183014-0.3042374-0.2450562-0.4450912-0.3802643
																					c0.094368-1.1311035,0.0577469-2.3621368,0.0577469-2.3621368h5.1397705
																					c0,0,0.1507187,1.5620575,0.3141098,2.7649536
																					C75.2006378,156.1578979,75.2851486,156.3902893,75.4175491,156.5916595z" class="colorffab90 svgShape"></path></g><g fill="#000000" class="color000 svgShape"><path fill="#ffffff" d="M76.4340744,158.6808167c0.1037598,0.0939941,0.0749512,0.3447266-0.1702881,0.7216797
																		c-0.2456055,0.3710938-0.71875,0.8723145-1.5220947,1.3037109
																		c-1.4034424,0.6374512-3.0292969,0.7507324-4.5075684,0.3342285
																		c-0.8408203-0.2875977-1.4643555-0.7585449-1.7130127-1.2126465
																		c-0.2567139-0.4567871-0.1555176-0.7502441-0.0267334-0.7854004
																		c0.3078613-0.0620117,0.6220703,0.453125,2.1014404,0.7023926
																		c1.1824951,0.3325195,2.4781494,0.2421875,3.5938721-0.2653809
																		C75.5541916,158.9745178,76.192009,158.4552307,76.4340744,158.6808167z" class="colorfff svgShape"></path></g><g fill="#000000" class="color000 svgShape"><path fill="#ffffff" d="M84.1551437,174.2044983c-0.0749512-0.2907715,0.4379883-0.6428223,1.4016113-1.2299805
																		c0.8607178-0.4128418,1.6569824-0.9638672,2.3468018-1.6235352
																		c0.8884277-0.6940918,1.3986816-1.0498047,1.6501465-0.8730469
																		c0.2303467,0.1564941,0.1221924,0.8496094-0.72229,1.8469238
																		c-0.7919922,0.7570801-1.7026367,1.3869629-2.6903076,1.8613281
																		C84.9088058,174.6253967,84.2219162,174.481842,84.1551437,174.2044983z" class="colorfff svgShape"></path></g><g fill="#000000" class="color000 svgShape"><path fill="#ffffff" d="M61.1319466,171.999176c-0.1694336,0.2175293-0.7408447,0.145752-1.5114746-0.5388184
																		c-0.5681152-0.6467285-1.0427246-1.3735352-1.4063721-2.1535645
																		c-0.3164063-0.9799805-0.15271-1.5322266,0.121582-1.6018066
																		c0.2930908-0.0778809,0.6225586,0.302002,1.0966797,1.0314941
																		c0.3098145,0.6650391,0.7156982,1.2866211,1.2000732,1.8376465
																		C61.1103401,171.3023987,61.3255501,171.7565002,61.1319466,171.999176z" class="colorfff svgShape"></path></g><g fill="#000000" class="color000 svgShape"><path fill="#fec9ac" d="M76.5771027,151.4146271c-0.1384125,0.9843445-0.3383408,2.0224609-1.010437,2.7544861
															c-0.5967178,0.6490479-1.4948807,0.9581451-2.3761215,0.9996643
															c-0.4783096,0.023056-0.9627609-0.026123-1.414917-0.1845703
															c-0.916626-0.3198395-1.625618-1.0488586-2.2623291-1.7793884
															c-0.2364731-0.2696686-0.4692154-0.5449524-0.6887665-0.8297729
															c-0.2272186-0.294754-0.5111237-0.5374451-0.815712-0.751297
															c-0.0014191-0.0009918-0.0028381-0.0019836-0.0042496-0.0029907
															c-0.2429962-0.1706848-0.441391-0.3983765-0.6290131-0.6259918
															c-0.1507263-0.181427-0.3029861-0.3736725-0.3414307-0.6028595
															c-0.0353699-0.2076416,0.0292206-0.4244385,0.1491852-0.5951385
															c0.0738144-0.1015167,0.1630173-0.1892395,0.2645187-0.2630463
															c-0.1968536-1.0642548-0.083046-2.1900024,0.3398895-3.1881714
															c0.5628891-1.3287354,1.665596-2.4191895,3.0020752-2.9651337l4.9783554-0.7812958
															c0.0215225,0.744339,0.3398743,1.4410858,0.5659637,2.1485443
															C77.0200348,146.8823242,76.8877716,149.192337,76.5771027,151.4146271z" class="colorfec9ac svgShape"></path><path fill="#2e363a" d="M78.2800598,144.0295563c-0.6308975-0.2871552-1.1743469-0.7671661-1.5363083-1.3586121
															c-0.1487274-0.2428741-0.269249-0.5044708-0.4029465-0.7549286
															c-0.0903931-0.1675873-0.1863785-0.3313599-0.3012238-0.4819946
															c-0.3671494-0.478241-0.9094086-0.8002319-1.4836655-0.9790344
															c-0.5761414-0.1789246-1.1823807-0.2259216-1.7848892-0.2335052
															c-0.9376221-0.0093689-1.8884583,0.0790405-2.771492,0.3934479
															c-0.8849106,0.3144073-1.7020874,0.8699188-2.2179718,1.6531982
															c-0.3689957,0.5610504-0.5704651,1.2125397-0.7662735,1.8544769
															c-0.1280289,0.423645-0.2560577,0.8492126-0.3520813,1.2803802
															c-0.0640488,0.2861938-0.1148453,0.574234-0.1412201,0.8660889
															c-0.0677719,0.7323914,0.0435181,1.4829559,0.3690262,2.1426392
															c0.2169876,0.4397125,0.470726,0.8490143,0.5912094,1.3556061
															c0.0715637-0.2504578,0.3050156-0.4311676,0.5573196-0.4932709
															c0.3219528-0.0810242,0.6664886,0.0037537,0.9696579,0.1203766
															c0.2277832,0.0885468,0.7493362,0.4425049,0.7493362,0.4425049s0.527153-1.5513916,0.6985016-1.9844818
															c0.4707184-1.1785736,1.7754898-1.9656219,3.0369797-1.8319244
															c-0.1788559,0.1468964-0.4989395,0.15625-0.5460129,0.3821869l0.3125305,0.0263672
															c0.3558807,0.0320435,0.7117233-0.0244598,1.050621-0.1373901
															c0.3106537-0.0998077,0.6571045-0.1356201,0.9131622-0.0207672
															c0.3859711,0.1694336,0.7512436,0.4085541,1.1673126,0.4631348
															c0.5008545,0.0640259,1.007309-0.15625,1.378212-0.4988708
															c0.203186-0.1877441,0.3679047-0.4096375,0.5102158-0.6467133V144.0295563z" class="color2e363a svgShape"></path><path fill="#ffab90" d="M68.7888794,151.2528076c0.0112991,0.1129913-0.079071,0.2259827-0.1901474,0.2391205
															c-0.0546112,0.0075378-0.1073227-0.0056-0.158165-0.0263824
															c-0.1769791-0.0695953-0.3125381-0.216507-0.4292831-0.3670959
															c-0.2127457-0.2730408-0.4010239-0.5892944-0.4085693-0.935791
															c-0.0018845-0.1092224,0.0169525-0.2258759,0.0903778-0.3068695
															c0.1035614-0.1148376,0.2861862-0.1223755,0.4368057-0.0809021
															c0.3031464,0.0809021,0.5535507,0.3313293,0.6382751,0.6325989L68.7888794,151.2528076z" opacity=".5" class="colorffab90 svgShape"></path><g fill="#000000" class="color000 svgShape"><path fill="#2e363a" d="M75.9379044,144.118927c-0.3746796,0.2334137-0.8604507,0.15242-1.2878494,0.0413666
														c-0.6665039-0.1732025-1.3424377-0.4047852-2.0259018-0.3181763
														c-0.677803,0.0828247-1.3047791,0.4989166-1.6493225,1.08638
														c-0.0847321,0.1468201-0.1543961,0.3031006-0.256073,0.4387054
														c-0.2485275,0.3294983-0.668396,0.491394-1.0788422,0.5215454
														c-0.4123383,0.0300598-0.8209-0.0565338-1.2238235-0.1431427
														c-0.3953857-0.0828247-0.7888947-0.1674957-1.1823959-0.2522736
														c-0.1901627-0.0414581-0.376564-0.0809937-0.5704956-0.0903625
														c0.0960236-0.4311676,0.2240524-0.8567352,0.3520813-1.280365
														c0.1958084-0.6419678,0.3972702-1.2934113,0.766304-1.8544922
														c0.5158844-0.7832794,1.3330307-1.3387299,2.2179413-1.6531525
														c0.8830338-0.3144073,1.8338623-0.4028473,2.771492-0.3934784
														c0.6025009,0.0075378,1.2087631,0.0546112,1.7848969,0.2335205
														c0.5742569,0.1788025,1.1165009,0.5007629,1.4836502,0.9790039
														c0.1148529,0.1506805,0.2108765,0.3144073,0.3012543,0.4820099
														c0.0338898,0.2786407,0.0903778,0.5591278,0.111084,0.8397217
														C76.4914474,143.2659607,76.3728256,143.8496552,75.9379044,144.118927z" class="color2e363a svgShape"></path></g><g fill="#000000" class="color000 svgShape"><path fill="#4f2d2a" d="M71.32901 148.6529999c-.0199585-.0118103-.0230789-.0559692.0084991-.1291504.0321121-.0717773.1008911-.1741333.2325516-.2687836.2298584-.147583.5259857-.1941223.7900238-.1242218.154213.0496521.2510529.1258698.3035202.1843719.0524139.0600739.0627975.1032562.0470276.1210327-.0357056.0422821-.155365-.0405579-.4057236-.0865326-.208786-.0544128-.4331284-.0190887-.6151428.0966949C71.4653854 148.5671082 71.377037 148.6828156 71.32901 148.6529999zM74.5561905 148.0053101c-.0303726-.0292664.0368423-.1802826.3071136-.3244171.2346649-.101944.4941177-.1425018.7487183-.1171112.3010788.0545807.4112625.1778259.3907776.216095-.0220795.0494995-.156723.0153198-.4127045.008606-.2157669-.0218811-.4384842.013031-.6372833.0997162C74.7108917 147.9728546 74.5931778 148.0466003 74.5561905 148.0053101zM73.5035172 151.8493195c.0192032-.0172882.0827637.033432.2016754.1164398.0592575.0394897.1363373.0861206.226944.1053009.0862122.0186768.2092361.002533.272644-.0679321.1146927-.1034088.0324402-.4152985.0039291-.6578522-.04039-.2540283-.0937271-.506012-.1590576-.7548676-.1383057-.5908203-.2263565-.8834534-.1761551-.9031067.041214-.0171356.2113037.2472992.3944778.8456573.0672226.256073.1221008.5153503.1636734.7767487.0213089.1314392.038147.2603455.0528488.3953094.0062256.0693207.0101471.1441345-.0037918.2250977-.0132751.0803833-.0505981.1681519-.1169662.2332916-.1675186.1454468-.355072.1292267-.4833298.0873566-.1310425-.0484314-.2093735-.1241455-.2644348-.1843719C73.5096207 151.9414978 73.486145 151.8646393 73.5035172 151.8493195zM73.8626404 153.3110352c.0055923.0215607-.0419159.0613861-.1532974.0968628-.1105499.0340881-.28759.0688324-.5237732.0428619-.3962479-.0601501-.7753067-.240097-1.0549698-.5427246-.1561737-.1880646-.2093887-.3820953-.2025375-.5065765.006134-.1262817.0500031-.1781464.0711517-.1731415.0559692.0066376.0103531.2362366.2997742.5293579.2328262.2532806.5725098.4189758.9197006.4697876C73.6300201 153.3028412 73.8497086 153.252533 73.8626404 153.3110352z" class="color4f2d2a svgShape"></path><ellipse cx="75.354" cy="149.535" fill="#4f2d2a" rx=".259" ry=".465" class="color4f2d2a svgShape"></ellipse><ellipse cx="72.321" cy="149.791" fill="#4f2d2a" rx=".259" ry=".465" class="color4f2d2a svgShape"></ellipse></g></g><g fill="#000000" class="color000 svgShape"><path fill="#fec9ac" d="M61.824688,175.0680389c0,0-0.5512733,4.7628479-7.0322876,5.7282715
							c-6.4810867,0.9626312-10.1846542-18.2339783-10.1846542-18.2339783s2.0032196-1.2341614,2.9575119-1.9477692
							c0.111908,0,5.2374649,10.1831512,5.5088997,10.7260132c0.2686653,0.5456696,3.6910782-4.3178711,3.6910782-4.3178711
							L61.824688,175.0680389z" class="colorfec9ac svgShape"></path></g><g fill="#000000" class="color000 svgShape"><path fill="#fec9ac" d="M47.564167,160.6144409c0.0252113,0.4141541-2.4555016,2.1801758-2.9564209,1.9478912
							c-0.5009193-0.2322083-3.3063507-3.30513-3.2839737-5.7285614c0.0224075-2.426178,5.0958672,2.8712006,5.0286751,2.4458466
							c-0.0671577-0.4281616,0.3134537-1.9756775,0.6968269-1.7070313
							C47.4298515,157.841217,47.564167,160.6144409,47.564167,160.6144409z" class="colorfec9ac svgShape"></path></g></g></g><g fill="#000000" class="color000 svgShape"><circle cx="134.857" cy="194.146" r="13.945" fill="#ffffff" class="colorfff svgShape"></circle><defs><circle id="SVGID_7_" cx="134.857" cy="194.146" r="13.945" fill="#000000" class="color000 svgShape"></circle></defs><clipPath id="SVGID_4_"><use overflow="visible" xlink:href="#SVGID_7_"></use></clipPath><g clip-path="url(#SVGID_4_)" fill="#000000" class="color000 svgShape"><path fill="#fec9ac" d="M142.1178436,227.3347778c0.6210632,0.0616608,1.5167542-0.0127869,2.5459137-0.2052612
											c3.3825989-0.6313477,8.2281342-2.5356598,9.7294922-5.0815735
											c0.2258759-0.3824615,0.3952484-0.7596741,0.5132904-1.1242218
											c0.9213867-2.7999268-3.926651-8.5642242-3.926651-8.5642242
											c-1.3102417,2.6806335-2.3520508,5.2934418-4.0364227,6.5796814
											c0.1257629,0.1079102,0.9694366,1.4815369,1.2260742,1.9923248
											c0.0051422,0.0127716,0.0077057,0.023056,0.0051422,0.0333252
											c0.0615997,0.6389923-5.4922333,3.4647369-5.4922333,3.4647369s-0.6057129,0.1309662-1.2242126-0.3080139
											c-0.6210632-0.438858-1.7862549-1.2781067-2.1506805-0.736496
											c-0.361908,0.5440063,2.3457336,2.2892761,1.2292938,1.7887726
											c-0.9238892-0.4131775-3.1285095-0.8956299-3.9780273-0.6980133
											c-0.1745148,0.0384674-0.2951202,0.1077728-0.3285217,0.2130432
											C136.0198975,225.3021545,139.4512329,227.0653534,142.1178436,227.3347778z" class="colorfec9ac svgShape"></path><path fill="#71c687" d="M144.7235565,220.44664l1.6456146,9.081131
																						c-11.9259186,1.5680695-22.9499817-1.3193207-22.9499817-1.3193207l0.5596619-5.7794342l0.3114471-3.2140656
																						c-2.373497-0.7473602-5.0579681-8.0463867-5.0579681-8.0463867s1.6749344-2.454071,4.7855377-5.4229279
																						c2.505394-2.3936005,5.6596985-4.0307007,9.0829773-4.571167
																						c3.1960754-0.5053711,6.3591919-0.0641479,9.1693573,1.6872253
																						c0.3950653,0.2457733,0.8029175,0.5404968,1.2189636,0.8729401
																						c4.5101166,3.6030731,9.938446,11.6873779,9.938446,11.6873779
																						C149.5983582,220.733902,144.7235565,220.44664,144.7235565,220.44664z" class="color71c687 svgShape"></path><polygon fill="#f3f6fd" points="135.071 209.362 136.168 212.737 139.716 212.737 136.846 214.823 137.942 218.198 135.071 216.112 132.2 218.198 133.297 214.823 130.426 212.737 133.975 212.737" class="colorf3f6fd svgShape"></polygon><path fill="#c16244" d="M146.3684387,229.6421356c-0.0540619,0-0.1020966-0.0384216-0.1121368-0.0936127
																							l-3.0588684-16.5190887c-0.0116119-0.0621033,0.0294952-0.1217499,0.0915985-0.133255
																							c0.0609894-0.0118408,0.1217651,0.02948,0.1331482,0.0917053l3.0588531,16.5190887
																							c0.0116272,0.0621033-0.02948,0.1217499-0.0915833,0.133255
																							C146.3825226,229.641571,146.3753662,229.6421356,146.3684387,229.6421356z" class="colorc16244 svgShape"></path><path fill="#edba3b" d="M123.4189835,228.3228149c-0.0040207,0-0.0080414-0.0002136-0.0120621-0.0005493
																							c-0.0627747-0.006485-0.1083527-0.0626678-0.1018753-0.1255646l1.5738907-15.2625427
																							c0.0064774-0.0628967,0.0645599-0.1074677,0.1255493-0.1020966
																							c0.0627747,0.0064697,0.1083527,0.0626526,0.1018753,0.1255493l-1.5738907,15.262558
																							C123.5264435,228.2790375,123.4768448,228.3228149,123.4189835,228.3228149z" class="coloredba3b svgShape"></path><g fill="#000000" class="color000 svgShape"><path fill="#fec9ac" d="M138.5821381,201.3248291c-0.3211517,0.9507751-1.5127716,1.6042786-2.4156647,1.8522186
																					c-0.8563843,0.2352142-1.7634888,0.2549591-2.6226959,0.0281372
																					c-1.9353485-0.5112915-1.9832306-1.7099304-1.9832306-1.7099304
																					c0.3267822-0.1056366,0.4859467-0.9394836,0.5605927-1.8367462
																					c0.0943756-1.1310883,0.0577545-2.3621216,0.0577545-2.3621216h5.1397705
																					c0,0,0.1507263,1.5620422,0.3141174,2.7649536c0.0337982,0.2422943,0.1183167,0.4747009,0.2507172,0.6760712
																					c0.1169128,0.1817017,0.2704468,0.3409271,0.4563599,0.4606018
																					C138.4793091,201.2881775,138.5821381,201.3248291,138.5821381,201.3248291z" class="colorfec9ac svgShape"></path></g><g opacity=".5" fill="#000000" class="color000 svgShape"><path fill="#ffab90" d="M137.8834991,200.7374115c-1.7564545,0.6352844-3.829834,0.4282074-5.3172607-0.6986389
																					c-0.1563416-0.1182861-0.3042297-0.2450409-0.4450989-0.3802643
																					c0.0943756-1.1310883,0.0577545-2.3621216,0.0577545-2.3621216h5.1397705
																					c0,0,0.1507263,1.5620422,0.3141174,2.7649536
																					C137.6665802,200.3036346,137.7510986,200.5360413,137.8834991,200.7374115z" class="colorffab90 svgShape"></path></g><g fill="#000000" class="color000 svgShape"><path fill="#ffffff" d="M138.9000092,202.8265686c0.1037598,0.0939941,0.0749512,0.3447266-0.1702881,0.7216797
																		c-0.2456055,0.3710938-0.71875,0.8723145-1.5220947,1.3037109
																		c-1.4034424,0.6374512-3.0292969,0.7507324-4.5075684,0.3342285
																		c-0.8408203-0.2875977-1.4643555-0.7585449-1.7130127-1.2126465
																		c-0.2567139-0.4567871-0.1555176-0.7502441-0.0267334-0.7854004
																		c0.3078613-0.0620117,0.6220703,0.4528809,2.1014404,0.7023926
																		c1.1824951,0.3325195,2.4781494,0.2421875,3.5938721-0.2653809
																		C138.0201263,203.1202698,138.6579437,202.6009827,138.9000092,202.8265686z" class="colorfff svgShape"></path></g><g fill="#000000" class="color000 svgShape"><path fill="#ffffff" d="M146.6210785,218.3502502c-0.0749512-0.2907715,0.4379883-0.6428223,1.4016113-1.2299805
																		c0.8607178-0.4128418,1.6569824-0.9638672,2.3468018-1.6235352
																		c0.8884277-0.6940918,1.3986816-1.0498047,1.6501465-0.8730469
																		c0.2303467,0.1564941,0.1221924,0.8496094-0.72229,1.8469238
																		c-0.7919922,0.7570801-1.7026367,1.3869629-2.6903076,1.8613281
																		C147.3747406,218.7711487,146.687851,218.627594,146.6210785,218.3502502z" class="colorfff svgShape"></path></g><g fill="#000000" class="color000 svgShape"><path fill="#ffffff" d="M123.5978928,216.144928c-0.1694336,0.2175293-0.7408447,0.145752-1.5114746-0.5388184
																		c-0.5679932-0.6467285-1.0427246-1.3735352-1.4063721-2.1535645
																		c-0.3164063-0.9799805-0.15271-1.5322266,0.121582-1.6018066
																		c0.2930908-0.0778809,0.6225586,0.302002,1.0966797,1.0314941
																		c0.3098145,0.6650391,0.7156982,1.2866211,1.2000732,1.8376465
																		C123.5762863,215.4481506,123.7914963,215.9022522,123.5978928,216.144928z" class="colorfff svgShape"></path></g><g fill="#000000" class="color000 svgShape"><path fill="#fec9ac" d="M139.043045,195.560379c-0.1384125,0.9843445-0.3383331,2.0224609-1.010437,2.7544861
															c-0.5967102,0.6490479-1.494873,0.9581451-2.3761139,0.9996643
															c-0.4783173,0.023056-0.9627686-0.0261383-1.414917-0.1845856
															c-0.916626-0.3198242-1.6256256-1.0488586-2.2623291-1.7793732
															c-0.2364807-0.2696838-0.469223-0.5449524-0.6887817-0.8297729
															c-0.2272034-0.294754-0.5111237-0.5374451-0.8157043-0.751297
															c-0.0014191-0.0009918-0.0028381-0.0019989-0.0042419-0.0029907
															c-0.2429962-0.1707001-0.441391-0.3983765-0.6290283-0.6259918
															c-0.1507111-0.181427-0.3029785-0.3736725-0.3414154-0.6028748
															c-0.0353699-0.2076263,0.0292206-0.4244385,0.1491852-0.5951233
															c0.0738068-0.101532,0.1630096-0.1892395,0.2645111-0.2630615
															c-0.1968536-1.0642395-0.0830383-2.1900024,0.3398895-3.1881561
															c0.5628967-1.3287354,1.6656036-2.4192047,3.0020752-2.9651489l4.9783478-0.7812805
															c0.0215302,0.744339,0.3398895,1.4410706,0.565979,2.1485443
															C139.4859772,191.0280762,139.353714,193.3380737,139.043045,195.560379z" class="colorfec9ac svgShape"></path><path fill="#2e363a" d="M140.7460022,188.175293c-0.6308899-0.2871399-1.1743469-0.7671509-1.5363007-1.3585968
															c-0.1487427-0.2428741-0.2692566-0.5044708-0.4029541-0.7549438
															c-0.0903931-0.1675873-0.1863708-0.3313446-0.3012238-0.4819946
															c-0.3671417-0.4782257-0.9094086-0.8002167-1.4836578-0.9790192
															c-0.5761414-0.1789246-1.1823883-0.2259369-1.7848969-0.2335205
															c-0.9376221-0.0093536-1.8884583,0.0790558-2.7714844,0.3934631
															c-0.8849182,0.3144073-1.7020874,0.8699188-2.2179718,1.6531982
															c-0.3690033,0.5610352-0.5704651,1.2125397-0.7662811,1.8544769
															c-0.1280212,0.423645-0.2560577,0.8492126-0.3520813,1.2803802
															c-0.0640564,0.2861786-0.1148529,0.5742188-0.1412201,0.8660889
															c-0.0677643,0.7323761,0.0435181,1.4829407,0.3690338,2.1426392
															c0.21698,0.4397125,0.4707184,0.8490143,0.5912018,1.3556061
															c0.0715637-0.2504578,0.3050079-0.4311676,0.5573273-0.4932709
															c0.3219452-0.0810242,0.6664886,0.0037537,0.9696503,0.1203766
															c0.2277832,0.0885468,0.7493439,0.4425049,0.7493439,0.4425049s0.5271454-1.5514069,0.6984863-1.9844818
															c0.4707336-1.1785889,1.7754974-1.9656219,3.0369873-1.8319244
															c-0.1788635,0.1468811-0.4989319,0.15625-0.5460052,0.3821869l0.3125305,0.0263672
															c0.3558807,0.0320435,0.7117157-0.0244598,1.0506134-0.1373901
															c0.3106537-0.099823,0.6571045-0.1356201,0.9131622-0.0207672
															c0.3859711,0.1694336,0.7512512,0.4085388,1.1673126,0.4631348
															c0.5008545,0.0640106,1.007309-0.15625,1.3782196-0.4988708
															c0.203186-0.1877441,0.3679047-0.4096527,0.5102081-0.6467133V188.175293z" class="color2e363a svgShape"></path><path fill="#ffab90" d="M131.2548218,195.3985596c0.0113068,0.1129913-0.079071,0.2259674-0.190155,0.2391205
															c-0.0545959,0.0075378-0.1073151-0.0056152-0.1581573-0.0263824
															c-0.1769867-0.0695953-0.3125305-0.216507-0.4292755-0.3670959
															c-0.2127533-0.2730408-0.4010315-0.5892944-0.4085693-0.935791
															c-0.0018921-0.1092224,0.0169525-0.2258911,0.0903625-0.3068848
															c0.1035767-0.1148224,0.2861938-0.1223602,0.4368134-0.0809021
															c0.3031464,0.0809021,0.5535583,0.3313293,0.6382751,0.6325989L131.2548218,195.3985596z" opacity=".5" class="colorffab90 svgShape"></path><g fill="#000000" class="color000 svgShape"><path fill="#2e363a" d="M138.4038391,188.264679c-0.3746643,0.2334137-0.8604431,0.15242-1.2878418,0.0413666
														c-0.6665039-0.1732025-1.3424377-0.4047852-2.0258942-0.3181763
														c-0.6778107,0.0828247-1.3047791,0.4989166-1.6493225,1.08638
														c-0.0847321,0.1468201-0.1544037,0.3031006-0.256073,0.4387054
														c-0.2485352,0.329483-0.668396,0.4913788-1.0788422,0.5215454
														c-0.4123383,0.0300598-0.8209076-0.0565491-1.2238312-0.1431427
														c-0.3953857-0.08284-0.7888947-0.167511-1.1823883-0.2522736
														c-0.1901703-0.0414581-0.3765717-0.0809937-0.5704956-0.0903625
														c0.0960236-0.4311829,0.2240448-0.8567352,0.3520813-1.280365
														c0.1958008-0.641983,0.3972626-1.2934265,0.7662964-1.8544922
														c0.5158844-0.7832794,1.3330383-1.3387451,2.2179413-1.6531525
														c0.8830414-0.3144226,1.8338623-0.4028625,2.7714996-0.3934784
														c0.6024933,0.0075378,1.2087555,0.0546112,1.7848969,0.2335052
														c0.5742493,0.1788177,1.1165009,0.5007629,1.4836426,0.9790039
														c0.1148529,0.1506805,0.2108765,0.3144226,0.3012543,0.4820099
														c0.0338898,0.278656,0.0903778,0.5591431,0.111084,0.8397217
														C138.9573975,187.4117126,138.8387756,187.9954071,138.4038391,188.264679z" class="color2e363a svgShape"></path></g><g fill="#000000" class="color000 svgShape"><path fill="#4f2d2a" d="M133.7949524 192.7987366c-.0199585-.011795-.0230713-.0559692.0084991-.1291351.0321198-.0717926.1008911-.1741333.2325592-.2687836.2298584-.147583.5259857-.1941223.7900238-.1242218.1542053.0496521.2510529.1258545.3035126.1843719.0524139.0600586.0628052.103241.0470276.1210327-.0357056.0422821-.155365-.0405731-.4057159-.0865326-.2088013-.0544128-.433136-.019104-.6151581.0966949C133.9313354 192.7128601 133.8429871 192.8285675 133.7949524 192.7987366zM137.0221405 192.1510468c-.0303802-.0292511.0368347-.1802673.3071136-.3244171.2346649-.1019287.4941101-.1425018.7487183-.1170959.3010712.0545807.4112549.1778259.3907776.216095-.0220795.0494843-.1567383.0153198-.4127045.0085907-.2157745-.0218658-.4384918.013031-.6372833.0997314C137.1768341 192.1186066 137.0591125 192.1923523 137.0221405 192.1510468zM135.9694672 195.9950562c.0191956-.0172882.0827637.0334473.2016602.1164551.0592651.0394897.1363525.0861206.2269592.1052856.0861969.018692.2092285.0025482.272644-.0679169.1146851-.1034241.0324402-.4152985.0039215-.6578522-.04039-.2540283-.0937195-.506012-.1590576-.7548828-.1383057-.5908203-.2263489-.8834381-.1761475-.9031067.041214-.0171204.2113037.2473145.3944702.8456726.0672302.256073.1221008.5153503.163681.7767487.0213013.1314392.0381317.2603302.0528412.3952942.0062256.0693359.0101471.1441498-.0037842.2251129-.0132751.0803833-.0505981.1681366-.1169739.2332916-.167511.1454468-.355072.1292267-.4833221.0873566-.1310425-.0484314-.2093811-.1241455-.2644348-.1843872C135.9755707 196.0872498 135.9520874 196.0103912 135.9694672 195.9950562zM136.3285828 197.4567871c.0055847.0215454-.0419159.0613708-.1532898.0968628-.1105499.0340881-.2875977.0688324-.5237885.0428467-.3962402-.0601349-.7752991-.240097-1.0549622-.5427094-.1561737-.1880646-.2093811-.3821106-.2025299-.5065765.006134-.1262817.0500031-.1781464.0711365-.1731567.0559692.0066376.0103607.2362518.2997742.5293579.2328339.2532959.572525.4189911.9197083.4697876C136.0959625 197.4485931 136.3156586 197.3982849 136.3285828 197.4567871z" class="color4f2d2a svgShape"></path><ellipse cx="137.82" cy="193.681" fill="#4f2d2a" rx=".259" ry=".465" class="color4f2d2a svgShape"></ellipse><ellipse cx="134.787" cy="193.936" fill="#4f2d2a" rx=".259" ry=".465" class="color4f2d2a svgShape"></ellipse></g></g><g fill="#000000" class="color000 svgShape"><path fill="#fec9ac" d="M124.2906342,219.2137909c0,0-0.5512695,4.7628479-7.0322876,5.7282715
							c-6.4810867,0.962616-10.1846542-18.2339783-10.1846542-18.2339783s2.0032196-1.2341766,2.9575119-1.9477692
							c0.111908,0,5.2374649,10.1831512,5.5088959,10.7260132c0.2686691,0.5456696,3.6910782-4.3178711,3.6910782-4.3178711
							L124.2906342,219.2137909z" class="colorfec9ac svgShape"></path></g><g fill="#000000" class="color000 svgShape"><path fill="#fec9ac" d="M110.0301132,204.7601929c0.0252075,0.4141541-2.4555054,2.1801758-2.9564209,1.9478912
							c-0.5009232-0.2322235-3.3063507-3.30513-3.2839737-5.7285614c0.0224075-2.426178,5.0958633,2.8712006,5.0286713,2.4458466
							c-0.0671539-0.4281616,0.3134537-1.9756775,0.6968307-1.7070465
							C109.8957977,201.9869537,110.0301132,204.7601929,110.0301132,204.7601929z" class="colorfec9ac svgShape"></path></g></g></g><g fill="#000000" class="color000 svgShape"><circle cx="131.638" cy="95.43" r="27.212" fill="#64d3ff" class="color64d3ff svgShape"></circle><defs><circle id="SVGID_9_" cx="131.638" cy="95.43" r="27.212" fill="#000000" class="color000 svgShape"></circle></defs><clipPath id="SVGID_6_"><use overflow="visible" xlink:href="#SVGID_9_"></use></clipPath><g clip-path="url(#SVGID_6_)" fill="#000000" class="color000 svgShape"><path fill="#7a4036" d="M117.4102478,103.7372971c0.0351868-1.0355072,0.0219803-2.0930252,0.3517609-3.0735703
								c0.5672455-1.6774673,2.0446625-2.8713226,2.9416656-4.3993073c0.681221-1.1634216,0.9932938-2.4507751,1.0665588-3.7845078
								c0.0030365-0.0092316,0.0066299-0.0179291,0.0096359-0.0271606c0.4007187-1.2345352,0.6079865-2.5953217,0.9205933-3.8611526
								c0.3095169-1.2533798,0.5156326-2.518837,0.7112808-3.7937393c0.1563873-1.019249,0.3410034-1.9960861,0.6448593-2.9683685
								c0.0361252,0.021904,0.0743408,0.0399857,0.1097946,0.0630188c1.413681-4.287178,6.0812073-7.2398758,10.5596619-6.6835861
								c4.4784393,0.5539856,8.2819519,4.5620041,8.6029358,9.0623779c0.1363068,1.8863754-0.2044525,4.0146179,1.0025482,5.4700317
								c1.9259338,2.3238831,6.0328217,0.9519882,8.3940582,2.8317642c1.2861481,1.0245056,1.7280579,2.7745438,1.8753815,4.4102554
								c0.1450806,1.6357651,0.0813141,3.3286362,0.6705627,4.8610229c1.5367889,3.994751,6.6220093,5.2127609,9.4361725,8.4358215
								c2.7481995,3.1527405,2.8954773,8.0950851,0.8332672,11.7314987
								c-2.0644836,3.6364212-6.0174713,5.9712524-10.1397552,6.6660233
								c-4.1244965,0.6969299-8.3896637-0.1077271-12.2832947-1.6335602
								c-2.3480682-0.9189758-4.6565399-2.1171799-7.1694946-2.2776642
								c-3.3307953-0.2110519-6.5802612,1.4334564-9.902298,1.1520386
								c-4.3179321-0.3627396-7.9895096-4.4323196-7.9103928-8.7634583l-3.9221802-1.3015289
								c0.8640137-1.4246521,1.5059738-3.0164032,1.9764938-4.6015549
								C116.911171,108.8115768,117.3200989,106.2788391,117.4102478,103.7372971z" class="color7a4036 svgShape"></path><path fill="#ffcf3d" d="M110.2312393,127.2825851c3.3677979,2.6574173,7.6765366,4.748909,7.6765366,4.748909
															l-0.7289581,8.9575043h32.2852478v-6.5305939c17.2326355-2.1823578,19.1890717-7.4832687,19.1890717-7.4832687
															s-2.0845184-3.1348953-7.0756836-8.9551849c-0.0023346-0.0046616-0.0023346-0.0069962-0.0069885-0.0116577
															c-1.6186829-1.8865509-3.5424805-4.0525208-5.7969818-6.4887009
															c-3.9780426-4.2924805-8.7455902-6.6866913-13.3803864-7.8302917
															c-0.547348-0.1351013-1.0946655-0.2515564-1.6373291-0.3516846
															c-5.2752991-0.9828568-10.2268524-0.4099197-13.4502487,0.747612
															c-0.1420975,0.0489578-0.2795029,0.1001358-0.4145813,0.1537552
															c-0.7499466,0.2957382-1.6023865,0.6987152-2.522377,1.1924438
															c-6.6727066,3.5704498-16.9228516,11.7454376-17.9895782,15.800293
															C105.8712692,123.1625061,107.8090515,125.3681107,110.2312393,127.2825851z" class="colorffcf3d svgShape"></path><path fill="#fcc230" d="M149.521347,141.0091095v-6.5295715
															c17.2324371-2.1831512,19.1895142-7.4841232,19.1895142-7.4841232s-2.0852966-3.1347198-7.0758514-8.9553528
															c1.1202698,1.7444763,0.2058258,4.7543106-0.7457123,6.6001129
															c-0.9549255,1.8456345-2.9423676,3.1144485-5.0209351,3.2021027
															c-3.6847076,0.1519089-6.56633-2.9861908-8.8811035-5.8543243
															c-0.3171844,3.4181061-2.2371521,6.6540604-5.085022,8.5740128
															c-2.8478851,1.9166412-6.5663452,2.4767456-9.85289,1.484726
															c-3.6644745-1.1067657-6.6169739-4.0221863-8.3108521-7.4571838
															c-1.6905136-3.4316101-2.6893082-7.5314102-2.5981979-11.3577881
															c-2.6847763,5.1974258-3.6695175,11.5279846-3.3000488,18.7609406
															c0.0809937,0.0405273,0.1248627,0.0607147,0.1248627,0.0607147l-0.7288513,8.9557343H149.521347z" class="colorfcc230 svgShape"></path><path fill="#2e363a" d="M149.4647064 134.9803772c-.2353516 0-.4453125-.1679688-.4902344-.4082031l-2.1972656-11.7836914c-.0507813-.2714844.1279297-.5327148.3994141-.5834961.2636719-.0454102.5322266.1274414.5830078.3999023l2.1972656 11.7836914c.0507813.2714844-.1279297.5327148-.3994141.5834961C149.5262299 134.9774475 149.4959564 134.9803772 149.4647064 134.9803772zM117.9080734 132.5545959c-.2578125 0-.4765625-.1982422-.4970703-.4599609-.0410156-.5024414-.9384766-12.3828125 3.2490234-19.1274414.1464844-.2348633.4570313-.3046875.6884766-.1611328.234375.1455078.3066406.4541016.1611328.6884766-4.0126953 6.4638672-3.1113281 18.4003906-3.1025391 18.5200195.0224609.2753906-.1826172.5166016-.4580078.5385742C117.9354172 132.5541077 117.9217453 132.5545959 117.9080734 132.5545959z" class="color2e363a svgShape"></path><g fill="#000000" class="color000 svgShape"><path fill="#edba3b" d="M127.762001,107.0245209c0.8105087,1.3694534,2.4384995,2.1869507,4.8374405,2.4291763
														c0.3819427,0.0395813,0.7592773,0.0582275,1.120285,0.0582275c3.2653046,0,5.6572418-1.5907593,6.8008118-4.495079
														l0.2491913-1.6512527c0-0.0023346-0.0046234-0.0116577-0.0139618-0.027977
														c-5.2752991-0.9828568-10.2268524-0.4099197-13.4502487,0.747612
														C127.1587524,104.9003983,127.1494598,105.9950409,127.762001,107.0245209z" class="coloredba3b svgShape"></path></g><g fill="#000000" class="color000 svgShape"><path fill="#fec9ac" d="M123.8932495,91.8151016c0.5514069,7.8182602,5.302948,7.9599533,5.302948,7.9599533
														c0,0.0101318,0.0031586,0.0168839,0.0031586,0.0270233c0.5167542,3.4012146-0.4474182,3.5159683-0.4474182,3.5159683
														s-0.0189056,0.0371552-0.0441132,0.1012421c-0.2772827,0.6579666-1.5565491,4.3123398,4.0079193,4.8758163
														c6.1190338,0.6175232,6.8783875-4.4438934,6.9855347-4.4438934c0,0-1.0524139-2.4194183-0.9452667-5.0344849
														c0.1039581-2.6150665,1.7581787-5.0310135,0.3654938-12.3700714
														c-1.3895416-7.3390579-10.5271149-7.7068787-12.4460144-6.3841095
														C124.7597427,81.3852386,123.3418427,84.0003052,123.8932495,91.8151016z" class="colorfec9ac svgShape"></path></g><g opacity=".5" fill="#000000" class="color000 svgShape"><path fill="#ffab90" d="M128.7078247,103.4192886c1.7991638,0.0101318,3.6424255-0.6040039,5.060318-2.1797714
														c0.9452667-1.0460587,1.6668091-2.496933,2.0449219-4.1064682
														c-2.0008087,1.6567459-4.2978058,2.5779114-6.6137085,2.6690292
														c0.5167542,3.4012146-0.4474182,3.5159683-0.4474182,3.5159683S128.7330322,103.3552017,128.7078247,103.4192886z" class="colorffab90 svgShape"></path></g><g fill="#000000" class="color000 svgShape"><path fill="#7a4036" d="M142.0019684,100.4794388c-0.7297974-0.9889603-0.9439392-2.2730408-0.9200287-3.5018997
													c0.0239258-1.2288513,0.2624512-2.4435959,0.3415833-3.6701355
													c0.0716858-1.111145-0.0382233-2.3486938-0.8387909-3.1225586
													c-0.5884857-0.5688477-1.4290924-0.7677917-2.2143707-0.9985199
													c-6.6449432-0.9485626-6.5054321-6.8330994-12.215004-7.1809158
													c-1.0974121,0.3695602-1.6206741,1.5982971-1.939888,2.7114029
													c-1.3961792,4.8684921-1.3632431,10.1376266,0.0936813,14.9882889
													c0.1381073,0.4598236,0.2904816,0.9366989,0.2156372,1.4109421
													c-0.0748444,0.4742508-0.4608994,0.9390945-0.9406509,0.9204178
													c-0.5602493-0.0218201-0.8889771-0.6278152-1.0732727-1.1573334
													c-1.0205612-2.9322968-1.1237411-6.1212692-0.744278-9.2028122
													c0.3794632-3.0815353,1.225502-6.0838165,2.068634-9.0719681
													c0.2713852-0.9618225,0.5712051-1.9723129,1.2936478-2.6628342
													c0.745636-0.7126999,1.8214493-0.961647,2.8507309-1.028511
													c3.4203949-0.2221832,7.3533936,0.6943893,9.8517303,3.0410309
													c2.4983521,2.3466492,3.6300049,6.0586319,4.7254944,9.3064499
													c0.8530426,2.5290222,1.3986664,5.1627197,1.8313141,7.7930984
													c0.1017151,0.6184158,0.4424133,2.0074387-0.1907196,2.4792862
													C143.4951477,102.0562515,142.3891449,101.004097,142.0019684,100.4794388z" class="color7a4036 svgShape"></path></g><g fill="#000000" class="color000 svgShape"><path fill="#fec9ac" d="M135.8130646,90.7398376l0.9046478,3.1756058
													c0.6673126,0.5737915,1.7012024,0.4302826,2.3708649-0.1358871
													c0.6720276-0.5686264,1.0338745-1.4594116,1.2335968-2.3501892
													c0.192688-0.8530655,0.220871-1.8545532-0.3383636-2.4961624
													c-0.5921173-0.6768723-1.6494904-0.6568451-2.4060974-0.2013779
													C136.8234558,89.1848373,136.2994537,89.9724121,135.8130646,90.7398376z" class="colorfec9ac svgShape"></path></g><g opacity=".5" fill="#000000" class="color000 svgShape"><path fill="#ffab90" d="M137.2708435,92.7251282c-0.0231323,0.2478943,0.1620178,0.4957886,0.3895874,0.5246353
													c0.1118774,0.0165405,0.2198792-0.0123062,0.3240356-0.0578918
													c0.3625946-0.1526871,0.6403198-0.4750137,0.8795013-0.8054047
													c0.4358673-0.5990601,0.8216095-1.2929153,0.8370514-2.0531387
													c0.0038605-0.239624-0.034729-0.4955902-0.1851501-0.6732864
													c-0.2121735-0.2519302-0.5863342-0.2684708-0.894928-0.1775055
													c-0.6210632,0.1775055-1.134079,0.726944-1.307663,1.3879242L137.2708435,92.7251282z" class="colorffab90 svgShape"></path></g><g fill="#000000" class="color000 svgShape"><path fill="#4f2d2a" d="M133.4702301 88.5252075c.0351257-.0207596.0406036-.0984726-.0149536-.2272186-.056488-.126297-.1775055-.3063736-.4091492-.4728928-.4044189-.2596588-.9254303-.3415527-1.3899841-.2185745-.2713318.0873718-.4416962.2214584-.5340271.3243942-.0922089.1056824-.1104736.1816635-.0827332.2129517.0628204.0743942.2733612-.071373.7138367-.1522522.3673553-.0957336.7620544-.0335922 1.0823059.1701279C133.2303009 88.3741074 133.3857422 88.5776825 133.4702301 88.5252075zM127.7922668 87.3856506c.0534439-.0514679-.0648193-.3171844-.5403442-.5707855-.4128799-.1793594-.8693619-.2507248-1.3173065-.2060318-.5297318.0960236-.7235794.3128586-.6875458.380188.0388565.0870819.2757492.0269623.7261276.0151443.3796234-.0384979.7714767.0229187 1.1212463.1754608C127.5200882 87.3285599 127.7271957 87.458313 127.7922668 87.3856506zM129.6443634 94.14888c-.033783-.0304184-.1456146.0588226-.3548279.2048721-.1042633.0694962-.2398834.1515274-.399292.1852646-.1516724.0328751-.3681335.0044708-.4797058-.1195145-.2017822-.1819534-.0570679-.7306824-.0069122-1.1574402.0710754-.4469376.164917-.890274.2798615-1.3281326.2433319-1.039505.3982544-1.5543518.3099213-1.5889511-.0725098-.0301285-.3717651.4351196-.694046 1.4878845-.1182709.4505463-.2148285.9067154-.2879639 1.3666306-.0374985.2312546-.0671158.458046-.0929871.6954956-.0109634.1219711-.0178528.2536087.0066681.3960495.0233536.1414337.0890198.295845.2057953.4104691.2947388.2559052.6247101.2273636.8503723.1536865.2305603-.0852051.3683777-.2184219.4652557-.3243942C129.6336212 94.3110809 129.6749268 94.1758423 129.6443634 94.14888zM128.8866577 96.4037781c-.0098419.0379181.0737457.1079865.2697144.1704102.1944885.0599747.5059967.121109.9215393.0754013.6971588-.1058197 1.3640747-.4224319 1.8561249-.9548645.2747803-.3308792.3684082-.672287.3563538-.8912888-.0108032-.2221756-.0879822-.3134384-.1251831-.3046417-.098465.0116806-.018219.415657-.52742.931366-.4096527.4456482-1.0072937.7371674-1.6181488.8265533C129.295929 96.3893585 128.9094086 96.3008347 128.8866577 96.4037781z" class="color4f2d2a svgShape"></path><ellipse cx="126.389" cy="90.077" fill="#4f2d2a" rx=".455" ry=".818" class="color4f2d2a svgShape"></ellipse><ellipse cx="131.725" cy="90.527" fill="#4f2d2a" rx=".455" ry=".818" class="color4f2d2a svgShape"></ellipse></g><g fill="#000000" class="color000 svgShape"><path fill="#7a4036" d="M152.5652924,93.0082092c-0.0267334-0.2827148-0.0606689-0.5512695-0.1130371-0.6550293
												c0.0614014,0.0437012,0.0734863,0.0876465,0.1162109,0.1606445
												c0.2524414,0.4462891,0.722168,0.5112305,0.7961426,0.6652832
												c-0.0249023,0.0551758-0.138916,0.2436523-0.3225098,0.3591309
												C152.7665863,93.5597229,152.5898285,93.3038635,152.5652924,93.0082092z" class="color7a4036 svgShape"></path></g><g opacity=".44" fill="#000000" class="color000 svgShape"><path fill="#9c5f50" d="M125.4870987,79.4989853c0.2395859,0.1181335,0.4960327,0.2092438,0.7524796,0.2767181
										c0.7760773,0.2024841,1.5858917,0.2429352,2.3721008,0.4150238
										c4.0120239,0.8942337,6.5629883,5.0783081,10.4906464,6.303215
										c0.8975525,0.2800064,1.8457184,0.3880081,2.7803955,0.3272934
										c-0.148468-1.1945038-0.3981628-2.3687515-0.8874359-3.4653931
										c-0.8233185-1.85923-2.5205841-3.4788971-4.5147858-3.6779251
										c-0.6579895-0.4758301-1.3733215-0.8604584-2.1359253-1.1337967
										C131.4494476,77.501442,128.1730347,77.9772644,125.4870987,79.4989853z" class="color9c5f50 svgShape"></path></g><g fill="#000000" class="color000 svgShape"><path fill="#fec9ac" d="M132.2559052,140.9615173c2.5374603,0.3475494,32.1838684,3.4586334,33.5808258-2.1291962
									c0.3441772-1.3801117,0.4892731-2.6116791,0.5162506-3.6880646c0.087738-3.2932892-0.9481812-5.1221313-0.9481812-5.1221313
									c-0.0235901-0.313858-5.5067902,3.316864-15.174118,4.3223877
									c-2.6352997,0.2767181-5.5810394,0.3543243-8.8136139,0.1080017c0,0-6.3942566-3.630722-8.4120636-2.7668915
									c-2.0144653,0.8638306,2.3484802,2.9558716,2.6420441,3.0334778l0.0033722,0.0033722
									c-0.2125854,0-6.920639-0.9549408-7.2546997,0.8233032
									C128.0515594,137.3914948,129.721817,140.6173248,132.2559052,140.9615173z" class="colorfec9ac svgShape"></path></g><g opacity=".5" fill="#000000" class="color000 svgShape"><path fill="#ffab90" d="M150.2306824,134.3445129c3.0874786,2.3012848,7.1163483,3.3169403,10.9225464,2.7163086
									c1.8389893-0.2901306,3.6104736-0.9548645,5.1997528-1.9165649c0.087738-3.2932892-0.9481812-5.1221313-0.9481812-5.1221313
									C165.3812103,129.7082672,159.8980103,133.3389893,150.2306824,134.3445129z" class="colorffab90 svgShape"></path></g></g></g><g fill="#000000" class="color000 svgShape"><path fill="#f3f6fd" d="M271.3262329,94.2247467h-68.488266c-4.8049469,0-8.7001343-3.8951797-8.7001343-8.7001343V73.9695663
						c0-4.8049545,3.8951874-8.7001343,8.7001343-8.7001343h68.488266c4.8049316,0,8.7001343,3.8951797,8.7001343,8.7001343
						v11.5550461C280.0263672,90.329567,276.1311646,94.2247467,271.3262329,94.2247467z" class="colorf3f6fd svgShape"></path><rect width="26.562" height="1.841" x="222.527" y="69.861" fill="#d1dcf8" class="colord1dcf8 svgShape"></rect><rect width="34.574" height="1.262" x="222.527" y="74.437" fill="#d1dcf8" class="colord1dcf8 svgShape"></rect><rect width="18.938" height="1.262" x="222.527" y="77.803" fill="#d1dcf8" class="colord1dcf8 svgShape"></rect><rect width="9.712" height="1.262" x="222.527" y="81.169" fill="#d1dcf8" class="colord1dcf8 svgShape"></rect><rect width="26.901" height="1.262" x="247.05" y="77.803" fill="#d1dcf8" class="colord1dcf8 svgShape"></rect><rect width="37.439" height="1.262" x="236.512" y="81.169" fill="#d1dcf8" class="colord1dcf8 svgShape"></rect><rect width="12.479" height="1.262" x="261.472" y="74.437" fill="#d1dcf8" class="colord1dcf8 svgShape"></rect><g fill="#000000" class="color000 svgShape"><polygon fill="#fcc230" points="224.86 85.196 225.41 86.891 227.193 86.891 225.751 87.938 226.301 89.633 224.86 88.586 223.418 89.633 223.969 87.938 222.527 86.891 224.309 86.891" class="colorfcc230 svgShape"></polygon><polygon fill="#fcc230" points="230.873 85.196 231.423 86.891 233.205 86.891 231.764 87.938 232.314 89.633 230.873 88.586 229.431 89.633 229.982 87.938 228.54 86.891 230.322 86.891" class="colorfcc230 svgShape"></polygon><polygon fill="#fcc230" points="236.885 85.196 237.436 86.891 239.218 86.891 237.776 87.938 238.327 89.633 236.885 88.586 235.444 89.633 235.994 87.938 234.553 86.891 236.335 86.891" class="colorfcc230 svgShape"></polygon><polygon fill="#d1dcf8" points="242.898 85.196 243.449 86.891 245.231 86.891 243.789 87.938 244.34 89.633 242.898 88.586 241.457 89.633 242.007 87.938 240.566 86.891 242.348 86.891" class="colord1dcf8 svgShape"></polygon><polygon fill="#d1dcf8" points="248.911 85.196 249.462 86.891 251.244 86.891 249.802 87.938 250.353 89.633 248.911 88.586 247.469 89.633 248.02 87.938 246.578 86.891 248.36 86.891" class="colord1dcf8 svgShape"></polygon></g><g fill="#000000" class="color000 svgShape"><circle cx="209.067" cy="80.119" r="9.514" fill="#d1dcf8" class="colord1dcf8 svgShape"></circle></g></g><g fill="#000000" class="color000 svgShape"><path fill="#d1dcf8" d="M186.2031097 144.0653381c0 .2871094-.3577881.5463867-1.0811768.6655273h-1.8383789c-.7227783-.1191406-1.0804443-.378418-1.0804443-.6726074s.357666-.5463867 1.0804443-.6726074h1.8383789C185.8453217 143.5118713 186.2031097 143.7640686 186.2031097 144.0653381zM194.2031097 144.0653381c0 .2871094-.3577881.5463867-1.0811768.6655273h-1.8383789c-.7227783-.1191406-1.0804443-.378418-1.0804443-.6726074s.357666-.5463867 1.0804443-.6726074h1.8383789C193.8453217 143.5118713 194.2031097 143.7640686 194.2031097 144.0653381zM202.2031097 144.0653381c0 .2871094-.3577881.5463867-1.0811768.6655273h-1.8383789c-.7227783-.1191406-1.0804443-.378418-1.0804443-.6726074s.357666-.5463867 1.0804443-.6726074h1.8383789C201.8453217 143.5118713 202.2031097 143.7640686 202.2031097 144.0653381zM210.2031097 144.0653381c0 .2871094-.3577881.5463867-1.0811768.6655273h-1.8383789c-.7227783-.1191406-1.0804443-.378418-1.0804443-.6726074s.357666-.5463867 1.0804443-.6726074h1.8383789C209.8453217 143.5118713 210.2031097 143.7640686 210.2031097 144.0653381zM212.5518646 149.702301c-.2871094 0-.5463867-.357666-.6655273-1.0812988v-1.8383789c.1191406-.7226563.378418-1.0803223.6726074-1.0803223s.5463867.357666.6726074 1.0803223v1.8383789C213.1053314 149.344635 212.8531342 149.702301 212.5518646 149.702301zM212.5518646 157.702301c-.2871094 0-.5463867-.357666-.6655273-1.0812988v-1.8383789c.1191406-.7226563.378418-1.0803223.6726074-1.0803223s.5463867.357666.6726074 1.0803223v1.8383789C213.1053314 157.344635 212.8531342 157.702301 212.5518646 157.702301zM213.2847748 164.983551c.0128174.2346191-.2818604.4509277-1.3198242.5869141-.0303955-.1643066-.0568848-.3781738-.0786133-.6320801v-2.1557617c.1191406-.7226563.378418-1.0803223.6726074-1.0803223s.5463867.357666.6726074 1.0803223v1.5212402c-.0230713.0107422-.050293.0375977-.0811768.0812988C213.0860443 164.5238342 213.2717133 164.7372131 213.2847748 164.983551zM221.2847748 164.983551c0 .2871094-.3577881.5463867-1.0811768.6655273h-1.8383789c-.7226563-.1191406-1.0804443-.378418-1.0804443-.6726074s.3577881-.5463867 1.0804443-.6726074h1.8383789C220.9269867 164.4300842 221.2847748 164.6822815 221.2847748 164.983551zM229.2847748 164.983551c0 .2871094-.3577881.5463867-1.0811768.6655273h-1.8383789c-.7226563-.1191406-1.0804443-.378418-1.0804443-.6726074s.3577881-.5463867 1.0804443-.6726074h1.8383789C228.9269867 164.4300842 229.2847748 164.6822815 229.2847748 164.983551zM237.2847748 164.983551c0 .2871094-.3577881.5463867-1.0811768.6655273h-1.8383789c-.7226563-.1191406-1.0804443-.378418-1.0804443-.6726074s.3577881-.5463867 1.0804443-.6726074h1.8383789C236.9269867 164.4300842 237.2847748 164.6822815 237.2847748 164.983551zM245.2847748 164.983551c0 .2871094-.3577881.5463867-1.0811768.6655273h-1.8383789c-.7226563-.1191406-1.0804443-.378418-1.0804443-.6726074s.3577881-.5463867 1.0804443-.6726074h1.8383789C244.9269867 164.4300842 245.2847748 164.6822815 245.2847748 164.983551zM247.0566254 158.7411194c.2871094 0 .5465088.3579102.6655273 1.0812988v1.8383789c-.1190186.7226563-.378418 1.0803223-.6726074 1.0803223s-.5463867-.357666-.6726074-1.0803223v-1.8383789C246.5031586 159.0990295 246.7553558 158.7411194 247.0566254 158.7411194zM247.0566254 150.7411194c.2871094 0 .5465088.3579102.6655273 1.0812988v1.8383789c-.1190186.7226563-.378418 1.0803223-.6726074 1.0803223s-.5463867-.357666-.6726074-1.0803223v-1.8383789C246.5031586 151.0990295 246.7553558 150.7411194 247.0566254 150.7411194zM247.0566254 142.7411194c.2871094 0 .5465088.3579102.6655273 1.0812988v1.8383789c-.1190186.7226563-.378418 1.0803223-.6726074 1.0803223s-.5463867-.357666-.6726074-1.0803223v-1.8383789C246.5031586 143.0990295 246.7553558 142.7411194 247.0566254 142.7411194zM247.0566254 134.7411194c.2871094 0 .5465088.3579102.6655273 1.0812988v1.8383789c-.1190186.7226563-.378418 1.0803223-.6726074 1.0803223s-.5463867-.357666-.6726074-1.0803223v-1.8383789C246.5031586 135.0990295 246.7553558 134.7411194 247.0566254 134.7411194zM247.0566254 126.7411194c.2871094 0 .5465088.3579102.6655273 1.0812988v1.8383789c-.1190186.7226563-.378418 1.0803223-.6726074 1.0803223s-.5463867-.357666-.6726074-1.0803223v-1.8383789C246.5031586 127.0990295 246.7553558 126.7411194 247.0566254 126.7411194zM247.0566254 118.7411194c.2871094 0 .5465088.3579102.6655273 1.0812988v1.8383789c-.1190186.7226563-.378418 1.0803223-.6726074 1.0803223s-.5463867-.357666-.6726074-1.0803223v-1.8383789C246.5031586 119.0990295 246.7553558 118.7411194 247.0566254 118.7411194zM247.0566254 110.7411194c.2871094 0 .5465088.3579102.6655273 1.0812988v1.8383789c-.1190186.7226563-.378418 1.0803223-.6726074 1.0803223s-.5463867-.357666-.6726074-1.0803223v-1.8383789C246.5031586 111.0990295 246.7553558 110.7411194 247.0566254 110.7411194zM247.0566254 102.7411194c.2871094 0 .5465088.3579102.6655273 1.0812988v1.8383789c-.1190186.7226563-.378418 1.0803223-.6726074 1.0803223s-.5463867-.357666-.6726074-1.0803223v-1.8383789C246.5031586 103.0990295 246.7553558 102.7411194 247.0566254 102.7411194zM247.0566254 96.9127502c.2871094 0 .5465088.1635742.6655273.4943848v.840332c-.1190186.3303223-.378418.4936523-.6726074.4936523s-.5463867-.1633301-.6726074-.4936523v-.840332C246.5031586 97.0763245 246.7553558 96.9127502 247.0566254 96.9127502z" class="colord1dcf8 svgShape"></path></g><g fill="#000000" class="color000 svgShape"><path fill="#71c687" d="M48.2507935,206.7315216c0.6961327-2.6983032,0.564003-5.5311737,0.4547729-8.3156738
							c-0.1092262-2.7845154-0.1836586-5.6279449,0.6191978-8.2964325c1.1451759-3.8062592,4.037117-7.1541443,4.0184631-11.1289063
							c-0.0039291-0.8375854-0.1583595-1.7124329-0.6722145-2.3738861
							c-0.7995071-1.0291595-2.2629471-1.2877197-3.5593109-1.1542206
							c-3.6877975,0.3797913-6.7382088,3.2992096-8.2446976,6.6866302
							c-1.5064926,3.3874054-1.7238121,7.1943054-1.7391434,10.9015808
							c-0.0145721,3.522995,0.1327362,7.0466614,0.4413033,10.5561371c0.1571465,1.7873383,0.3599586,3.5887299,0.9451294,5.2848511
							c0.3783798,1.0967407,0.9255371,2.1498871,1.6764526,3.0389252c0.9040337,1.0703278,1.4000206,1.2195435,2.5404472,0.3783264
							C46.5396233,210.974884,47.6970444,208.8779144,48.2507935,206.7315216z" class="color71c687 svgShape"></path><path fill="#71c687" d="M20.142004,189.102066c0.458437,1.6168213,1.6561298,2.9385681,3.0291481,3.9076385
							c1.3730164,0.9690857,2.9311142,1.6353302,4.445158,2.3646851s3.0204926,1.5469513,4.1944237,2.749527
							c1.7329292,1.7751923,2.5796509,4.2116852,3.3330421,6.5753174c1.3676414,4.2907715,2.5967598,8.6256866,3.6847954,12.9957275
							c0.904953-4.646347,1.814209-9.349884,1.55896-14.0766602c-0.1480789-2.7421722-0.6906204-5.4627533-1.6057434-8.0519714
							c-1.067215-3.0195465-2.6633911-5.8873291-4.9140091-8.1657715c-2.2506142-2.2784424-5.1854095-3.9411621-8.3568687-4.3866119
							c-1.5228119-0.2138824-3.4446983-0.0702057-4.3080864,1.3722229
							C20.3203869,185.8604279,19.6457634,187.3518982,20.142004,189.102066z" class="color71c687 svgShape"></path><path fill="#61ba76" d="M39.2179909 228.1057129l-.6332092-.0180969c.2209892-6.6737061-.2330933-13.3952484-1.3443108-19.9735565-.1972122-1.1888123-.4362869-2.4794464-.7410011-3.8237457l-.1134872-.0358887c.0179443-.0597992.0418663-.1193237.0598068-.185257-.6931572-2.9394989-1.7088318-6.1059875-3.3638344-8.9381256-2.4973888-4.2896576-6.2495232-7.3070679-10.2824516-8.2747498l.1493683-.6213837c4.2002373 1.0096893 8.0957584 4.1344452 10.6828537 8.5734711 1.4876976 2.5453796 2.4674835 5.3355103 3.1545181 8.0002136.6632576-2.9514771.4063835-6.1240692-.7407112-8.9203491l.5855103-.2389221c1.3501434 3.2741241 1.5174522 7.0503235.4718781 10.4379425v.0058289c.3166771 1.3743591.5617332 2.7005768.7647781 3.91362C38.9850426 214.6264343 39.4391251 221.3899994 39.2179909 228.1057129zM40.3495827 229.7109528l-.6125183-.1702118 2.4071999-8.671524c.4367142-1.5724335.888958-3.1984711 1.1455154-4.8424988.4230461-2.7112885.3162003-5.5235138.2130775-8.2431946-.0291977-.7685852-.0583954-1.5370331-.0764084-2.3040771-.1615143-6.8715363.5814552-13.7420044 2.209034-20.4206543l.617485.1506348c-1.6139107 6.6244659-2.3506699 13.4393158-2.1903992 20.2551117.0180168.7640991.0465927 1.5292664.0757904 2.2949219.1043625 2.7498016.2124557 5.5932465-.2199097 8.3652496-.2621536 1.6808472-.7193642 3.3248901-1.1616669 4.9148865L40.3495827 229.7109528z" class="color61ba76 svgShape"></path><path fill="#71c687" d="M67.144104,189.8436584c-0.3571243-1.2765808-1.2281418-2.3968964-2.5851517-2.4881134
							c-1.1175957-0.07724-2.3667564,0.5590668-3.498333,1.2985077
							c-7.8221016,4.8400269-13.8886642,15.9026031-15.0891609,27.5019684
							c-0.201149,1.9435272,0.741848,3.4998169,2.0469666,3.6523132c0.0092888,0.0010834,0.0185966,0.0022278,0.027916,0.003418
							c0.1311569,0.0168304,0.2563744,0.0435028,0.3758049,0.0792694c1.0805321,0.3235626,2.2438583-0.6418457,2.8191643-2.1483307
							c1.4011612-3.6690521,3.0129509-6.9432983,4.7949371-10.340683c0.8997536-1.7027435,1.9077148-3.2872467,3.0154495-4.7280579
							c1.9457016-2.5314331,3.4934196-5.7880096,6.008934-7.2629242c0.7147293-0.436554,1.9002151-0.7102203,2.2902756-1.784256
							C67.7507706,192.525116,67.4266663,190.8032227,67.144104,189.8436584z" class="color71c687 svgShape"></path><path fill="#61ba76" d="M62.7524452,196.5351563l-4.546814,1.4458313l-0.0119629-0.0297546
							c-3.0589752,4.6064758-5.5266037,9.6012421-7.3369598,14.8171539l0.8782654-1.1529388l0.5019302,0.3821716
							l-2.001442,2.6469116c-1.5175972,4.8156433-2.4736099,9.8104248-2.8261719,14.8530426l-0.6391869-0.0475616
							c0.4660454-6.5304565,1.9238396-12.9771881,4.2838173-19.0653839l-0.6393318-8.6154785l0.6333542-0.0539703
							l0.5795288,7.2414093c1.1710167-2.8379822,2.5392494-5.5922394,4.0927315-8.2391357
							c-0.7588005-1.583252-1.0575333-3.4115448-0.8425255-5.1561127l0.6333542,0.0776062
							c-0.1852531,1.48172,0.0298996,3.035202,0.6034508,4.4212189c1.7983932-2.9931793,3.8357162-5.8431244,6.1001511-8.5078278
							l0.4839897,0.4122162c-1.4041176,1.655014-2.7245026,3.3817749-3.9553299,5.1741943l3.8119392-1.213028
							L62.7524452,196.5351563z" class="color61ba76 svgShape"></path><g fill="#000000" class="color000 svgShape"><path fill="#e4ecf9" d="M49.9747009,243.2011108c-1.0305138,1.9019928-3.0406036,3.0661469-5.2035141,3.0661469h-3.6131287
						c-1.8765297,0-3.6322327-0.8779297-4.732708-2.3536224c-0.1717682-0.222702-0.3307991-0.4579773-0.4643593-0.7125244
						c-2.7926598-5.1461334-2.6781235-14.4652557-2.5890579-17.0926819h19.1853828
						C52.6528282,228.7358551,52.7609177,238.0549774,49.9747009,243.2011108z" class="colore4ecf9 svgShape"></path><path fill="#d1dcf8" d="M49.9747009,243.2011108c-1.0305138,1.9019928-3.0406036,3.0661469-5.2035141,3.0661469h-3.6131287
						c-1.8765297,0-3.6322327-0.8779297-4.732708-2.3536224c0.5342407-0.0063629,1.0622711-0.0700378,1.5775681-0.184494
						c1.1323166-0.2543945,2.2200584-0.7569427,3.1169357-1.5013123c1.9465714-1.6156311,2.9516945-4.0647583,4.0394363-6.3548584
						c1.6284332-3.4349976,3.5876617-6.7047577,5.8459244-9.7645416h1.5521011
						C52.6528282,228.7358551,52.7609177,238.0549774,49.9747009,243.2011108z" class="colord1dcf8 svgShape"></path></g></g></g></svg>